<svg width="130" height="132" viewBox="0 0 130 132" fill="none" xmlns="http://www.w3.org/2000/svg">
<path d="M29.5016 15.644C29.4505 15.6433 29.3995 15.6426 29.3484 15.6419C25.5687 15.5948 21.9344 17.0975 19.292 19.8005C17.7828 21.3443 16.6725 23.2326 16.0574 25.3021C14.1002 31.7816 17.0755 36.8266 19.5881 42.5397C21.0827 46.1911 22.8099 49.4317 24.7486 52.8591C27.9731 58.5599 33.3113 63.0727 36.0304 68.9697C37.4504 72.0496 37.316 77.1402 37.3608 80.5723C27.5316 71.8419 24.6445 65.2077 21.9148 52.6291C18.3464 51.6324 15.2706 51.1228 11.5479 51.7799C3.97879 53.1159 -1.2152 60.5482 0.246902 68.1577C0.932816 71.704 2.99865 74.8327 5.99048 76.8564C9.15118 78.908 12.671 79.7252 16.2891 80.4933C23.3356 81.9893 29.9226 83.7402 36.6341 86.3981C41.1056 88.1688 45.8817 90.4003 50.7138 90.7788C55.8051 91.1777 59.5017 88.8801 63.1807 85.5744C62.6743 84.1116 61.835 82.0643 61.2201 80.5829C60.1193 78.0858 59.2771 75.0229 57.6735 72.8148C56.7 71.4745 54.0473 70.337 52.5475 69.539C49.9247 68.1604 47.3315 66.7256 44.7701 65.2358C43.6108 64.5549 42.1012 63.6933 41.0468 62.8863C37.9714 60.5331 36.33 56.6198 35.8563 52.8638C34.5175 42.2507 38.8386 31.9037 45.2806 23.6635C43.3777 21.9417 40.6861 20.3447 38.5568 18.8884C35.6059 16.87 33.0986 15.8825 29.5016 15.644Z" fill="white"/>
<path d="M79.7985 40.5524C79.6532 40.5443 79.5077 40.5373 79.3622 40.5312C74.2215 40.3204 70.6412 42.2987 66.9957 45.67C68.3416 49.5031 69.6339 53.3469 71.4777 56.9761C72.7576 59.4956 74.6065 60.1445 76.9779 61.3732C78.6346 62.2184 80.2738 63.0973 81.8947 64.0091C84.076 65.2423 86.3458 66.7456 88.5163 68.0314C91.2884 69.6738 93.2871 73.3549 93.9059 76.523C95.4373 84.3617 93.541 92.1505 90.03 99.192C88.4602 102.34 86.7751 104.744 84.9231 107.615C87.7653 109.975 93.2098 113.884 96.6818 114.97C100.197 116.108 104.025 115.756 107.274 113.996C110.587 112.206 113.036 109.154 114.065 105.533C115.7 99.9265 113.186 94.988 110.949 89.9942C109.414 86.5661 107.858 83.1401 106.053 79.8438C104.629 77.3368 103.037 74.9291 101.287 72.6374C98.7223 69.2569 94.4728 64.9632 93.3461 60.8621C92.764 58.7434 92.4868 53.0793 92.4931 50.705C101.419 57.5273 106.235 67.5792 108.045 78.477C109.685 79.1057 111.984 79.4717 113.713 79.6517C121.808 80.4948 129.304 75.0041 129.952 66.654C130.257 63.073 129.106 59.5201 126.759 56.7982C123.464 53.0032 119.222 51.9108 114.543 50.8597L107.483 49.2861C106.136 48.9823 104.548 48.6638 103.242 48.2613C99.3781 47.0704 95.622 45.6552 91.8754 44.1413C87.9095 42.539 84.126 40.8668 79.7985 40.5524Z" fill="white"/>
<path d="M65.3224 0C61.445 0.0145671 58.5494 1.08103 55.6876 3.78638C54.1347 5.25424 52.8218 7.36054 52.1161 9.38465C50.0386 15.4131 49.4 21.8021 47.5852 27.9016C46.9326 30.0484 46.1708 32.1907 45.4512 34.3155C41.7848 45.1418 35.4927 53.7347 45.1743 63.7041C47.992 62.7401 50.7871 61.7116 53.5574 60.6191C55.3329 59.9065 57.4166 59.2945 58.4864 57.5895C60.1809 55.0737 61.4121 52.2331 62.9226 49.6311C64.505 46.9053 66.35 43.5586 68.1536 41.0277C70.3307 37.9724 75.1715 36.365 78.7802 36.0339C89.0164 35.0949 98.6636 39.4512 106.511 45.7512C107.649 44.5091 108.476 43.4358 109.483 42.0925C111.756 38.8631 114.047 35.1458 114.519 31.1679C114.983 27.5166 113.954 23.8326 111.665 20.9504C109.325 18.0811 105.946 16.2531 102.264 15.8652C100.339 15.6822 98.3979 15.8577 96.5377 16.383C94.2393 17.0117 92.187 18.0704 90.0301 19.0563C84.3896 21.6342 78.7025 24.3048 73.7628 28.1054C69.2409 31.5846 64.5372 36.4556 58.7961 37.771C56.5549 38.2844 52.0284 38.1427 49.7296 37.8934C51.753 35.849 53.8645 33.6213 56.0958 31.8119C62.5145 26.607 69.9432 23.9849 77.9941 22.5749C78.5277 20.5747 78.8606 18.5263 78.9883 16.46C79.4947 7.77292 74.3502 0.476759 65.3224 0Z" fill="white"/>
<path d="M85.022 67.4147C82.6012 68.2648 80.0608 69.2789 77.6723 70.237C76.0678 70.9581 73.9757 71.5086 72.5414 72.5139C70.9687 73.6162 69.9016 76.2535 69.0059 77.8942C66.781 81.97 64.9185 86.2491 62.1301 89.9871C59.7767 93.1421 55.4799 94.6819 51.7053 95.1914C41.1166 96.4623 31.5032 91.7368 23.3669 85.4429C22.5729 86.5939 21.546 87.7051 20.746 88.8268C18.429 92.1209 16.1682 95.3521 15.5702 99.4362C14.4353 107.187 19.4436 114.309 27.2953 115.386C32.1857 116.057 36.6181 113.749 40.913 111.729C44.7167 109.939 48.6687 108.186 52.1952 105.871C55.3503 103.791 58.352 101.456 61.3248 99.1218C68.5004 93.378 71.1083 92.6182 80.1735 93.13C78.5103 95.2263 77.6025 96.0023 75.6743 97.767C68.7464 104.108 61.0829 106.936 51.9962 108.713C50.4315 114.636 50.5944 121.422 54.6599 126.329C56.9039 129.065 60.145 130.796 63.6674 131.138C69.9176 131.692 75.5334 128.033 77.7226 122.191C79.9575 116.259 80.4882 109.777 82.3012 103.721C83.49 99.7498 85.1634 95.7347 86.6194 91.8062C88.8796 85.7082 91.5887 79.0249 88.6102 72.6238C87.6544 70.5697 86.4368 69.1058 85.022 67.4147Z" fill="white"/>
</svg>
